<svg width="47" height="21" viewBox="0 0 47 21" fill="none" xmlns="http://www.w3.org/2000/svg">
<path fill-rule="evenodd" clip-rule="evenodd" d="M29.6329 0.0713015C29.8449 0.156413 30.071 0.255711 30.1417 0.284081C30.1982 0.312452 30.0286 0.808938 29.7601 1.37635C29.5058 1.92958 29.0536 3.0644 28.7851 3.88715C28.5024 4.7099 28.1774 5.94402 28.0502 6.65329C27.9231 7.36255 27.7818 8.72434 27.7394 9.70313C27.6828 10.9231 27.7252 11.9586 27.8807 13.0367C27.9937 13.8878 28.2057 14.9517 28.3329 15.3773C28.4601 15.8028 28.7285 16.6114 28.9264 17.1504C29.1242 17.6895 29.5623 18.6824 30.5091 20.5549L30.1558 20.7393C29.9721 20.8244 29.7177 20.9095 29.6047 20.9095C29.4775 20.9095 29.1525 20.3989 28.7709 19.5903C28.4318 18.881 27.9231 17.6043 27.6404 16.7674C27.3578 15.9163 27.0045 14.5119 26.8491 13.6325C26.6795 12.6962 26.5665 11.4196 26.5665 10.5259C26.5665 9.67476 26.6654 8.34134 26.7784 7.53277C26.9056 6.7384 27.16 5.51846 27.3578 4.8092C27.5557 4.09993 27.8242 3.20626 27.9796 2.82325C28.1209 2.44025 28.4601 1.6175 28.7285 1.02172C29.2373 -0.0705516 29.2373 -0.0847369 29.6329 0.0713015V0.0713015ZM17.028 0.255711C17.1128 0.269896 17.466 0.879864 17.8335 1.6175C18.215 2.35514 18.6955 3.53252 18.9357 4.24178C19.1759 4.95105 19.4868 6.18517 19.6564 7.00792C19.8542 8.04345 19.939 9.06479 19.939 10.3415C19.939 11.3628 19.8683 12.6395 19.7836 13.1785C19.6988 13.7176 19.5009 14.6822 19.3455 15.3063C19.19 15.9305 18.8368 17.0227 18.5541 17.7178C18.2715 18.4129 17.8335 19.4201 17.5791 19.9591C17.3106 20.484 17.0421 20.9379 16.9573 20.9805C16.8867 21.023 16.6323 20.9946 16.3921 20.9095C16.166 20.8244 15.9682 20.7393 15.9682 20.6967C15.9682 20.6542 16.2508 20.0726 16.5758 19.3775C16.9149 18.6966 17.4519 17.4058 17.7769 16.5121C18.0878 15.6184 18.4552 14.3134 18.5965 13.6041C18.752 12.8097 18.8509 11.6323 18.8509 10.4833C18.8509 9.26338 18.7661 8.21367 18.5965 7.36255C18.4694 6.65329 18.1867 5.5752 17.9889 4.95105C17.7911 4.32689 17.2823 3.07859 16.8725 2.18491C16.4486 1.29124 16.1519 0.511046 16.2084 0.454305C16.279 0.411749 16.4486 0.340822 16.6041 0.298266C16.7595 0.269896 16.9573 0.241525 17.028 0.255711V0.255711ZM35.2147 1.05009C35.4267 1.05009 36.0767 1.20613 36.642 1.40472C37.1931 1.60332 37.6735 1.75935 37.7018 1.75935C37.7159 1.75935 37.7159 1.81609 37.7018 1.88702C37.6735 1.95795 37.2496 1.88702 36.7409 1.73098C36.2322 1.57494 35.8224 1.47565 35.8082 1.50402C35.7941 1.5182 35.5115 2.02887 35.1865 2.61047C34.8473 3.19207 34.3527 4.15667 34.0842 4.73827C33.8299 5.31987 33.4625 6.41214 33.2646 7.14977C33.0244 8.12856 32.9255 8.89456 32.9255 9.91591C32.9255 10.9798 33.0103 11.6891 33.2788 12.753C33.4766 13.5615 33.9147 14.7247 34.2821 15.4482C34.6353 16.1574 35.3136 17.2639 35.7941 17.9306C36.2604 18.5973 36.7267 19.1789 36.7974 19.2357C36.8822 19.2782 37.3626 19.1647 37.8714 18.9661C38.3801 18.7675 38.9171 18.5831 39.0725 18.5406C39.228 18.5122 38.9171 18.6966 38.366 18.9661C37.829 19.2357 37.1224 19.5194 36.8115 19.6187C36.5007 19.7038 36.1332 19.7747 36.0061 19.7747C35.8506 19.7747 35.3984 19.2924 34.8897 18.5973C34.4092 17.959 33.6886 16.739 33.2788 15.8737C32.869 15.0226 32.3744 13.7743 32.1907 13.1076C31.9363 12.1288 31.8656 11.5472 31.8656 9.98683C31.8656 8.44063 31.9222 7.84485 32.1907 6.86607C32.3602 6.19936 32.6429 5.33405 32.7983 4.95105C32.9679 4.56804 33.2788 3.85878 33.5049 3.39066C33.731 2.92255 34.0277 2.34095 34.169 2.11399C34.3103 1.88702 34.5082 1.54657 34.6212 1.37635C34.7484 1.16357 34.9604 1.05009 35.2147 1.05009V1.05009ZM10.5277 1.34798C10.6125 1.34798 10.4146 1.47565 10.1037 1.6175C9.79286 1.77354 9.10043 2.08562 7.56014 2.75233L8.69063 3.80204C9.77873 4.8092 9.80699 4.83757 9.39719 4.85175C9.17109 4.85175 8.91673 4.95105 8.83194 5.06453C8.71889 5.23475 8.50693 5.10709 7.65906 4.32689C7.09382 3.81622 6.64162 3.27718 6.64162 3.14951C6.64162 2.99348 6.92424 2.75233 7.39057 2.51117C7.78624 2.31258 8.63411 1.95795 9.25588 1.74517C9.87764 1.53239 10.457 1.34798 10.5277 1.34798V1.34798ZM38.5355 2.14236C38.6768 2.18491 38.9171 2.31258 39.0725 2.42606C39.228 2.52536 39.3269 2.61047 39.2845 2.61047C39.2421 2.61047 39.0019 2.55373 38.7616 2.46862C38.5073 2.39769 38.2953 2.27002 38.2953 2.18491C38.2812 2.11399 38.3942 2.08562 38.5355 2.14236ZM3.50451 4.59642C3.56104 4.59642 3.82953 4.75245 4.09802 4.95105C4.36651 5.14964 4.8611 5.64613 5.20025 6.0575C5.52526 6.46888 5.96333 7.07884 6.16116 7.43348C6.359 7.78811 6.61336 8.42645 6.74054 8.85201C6.89598 9.37687 6.93837 9.95846 6.89598 10.6252C6.83946 11.2777 6.68401 11.916 6.44378 12.4693C6.23182 12.9374 5.85028 13.6466 5.58179 14.0296C5.32743 14.4268 4.76218 15.0935 3.56104 16.2993L2.65665 15.59L3.50451 14.7389C3.95671 14.2708 4.53609 13.6041 4.77631 13.2495C5.01654 12.8948 5.3133 12.2281 5.42635 11.76C5.55353 11.2919 5.61005 10.8663 5.58179 10.8096C5.53939 10.7387 4.26759 10.6961 0 10.6961V10.384C0 10.1996 0.0706555 9.68894 0.169573 9.23501C0.268491 8.79527 0.395671 8.42645 0.466327 8.42645C0.522851 8.42645 0.494589 8.63923 0.423933 8.89457C0.339147 9.13572 0.282622 9.58964 0.282622 10.4124H5.65244V9.70313C5.65244 9.26338 5.51113 8.65341 5.28503 8.11437C5.0872 7.61789 4.71979 6.96536 4.47956 6.66747C4.2252 6.36958 3.78714 5.92983 2.96753 5.30568L2.44468 5.61776C2.14793 5.78798 1.93596 5.88728 1.97836 5.84472C2.02075 5.80217 2.35989 5.50428 2.7273 5.17801C3.10884 4.86594 3.44799 4.59642 3.50451 4.59642V4.59642ZM43.9477 5.36242C44.1456 5.37661 44.3152 5.46172 44.3293 5.53265C44.3434 5.60357 44.0749 5.91565 43.7216 6.22773C43.3684 6.5398 42.7749 7.06466 42.4216 7.40511C41.9977 7.78811 41.8139 8.05763 41.8987 8.14274C41.9835 8.21367 42.9303 8.2846 44.0184 8.2846C45.1065 8.29878 46.0957 8.36971 46.2087 8.44063C46.3359 8.51156 45.5163 8.5683 43.9901 8.5683C41.9411 8.5683 41.5313 8.59667 41.4748 8.78108C41.4324 8.89456 41.4041 9.30594 41.4041 10.4124L42.2944 10.4266C42.7749 10.4408 43.976 10.4408 44.9793 10.4266C46.0533 10.4266 46.8022 10.4691 46.8446 10.5542C46.887 10.6252 46.8164 11.1075 46.7033 11.6181C46.5903 12.1288 46.3076 12.909 46.0815 13.3488C45.8554 13.8027 45.4315 14.4552 45.1206 14.7957C44.8239 15.1503 44.2021 15.7035 42.8879 16.6681L42.5629 16.3419C42.3933 16.1574 42.252 15.973 42.252 15.9163C42.252 15.8454 42.8455 15.2354 43.5662 14.5403C44.2728 13.8594 45.0358 12.9799 45.2478 12.5969C45.4456 12.2139 45.6293 11.7174 45.6435 11.4763C45.6576 11.2351 45.6717 10.9656 45.6576 10.8663C45.6435 10.7387 45.0358 10.6961 40.5563 10.6961L40.415 10.3415C40.3302 10.1145 40.3161 9.66057 40.4008 9.09316C40.4715 8.61086 40.6552 7.95833 40.8106 7.64626C40.9661 7.33418 41.3052 6.88025 41.5737 6.62492C41.8281 6.36958 42.3933 5.97239 42.8173 5.74543C43.2695 5.49009 43.7499 5.33405 43.9477 5.36242V5.36242ZM36.8257 7.17814C36.8257 7.20651 36.7409 7.57533 36.642 8.00089C36.5289 8.42645 36.43 9.23501 36.43 9.77405C36.4159 10.3131 36.4865 11.1217 36.5854 11.5472C36.6844 11.9728 36.7268 12.3558 36.6844 12.3983C36.642 12.4409 36.5289 12.1856 36.4441 11.8309C36.3452 11.4763 36.2604 10.6252 36.2604 9.91591C36.2463 8.97968 36.3169 8.44063 36.5289 7.88741C36.6844 7.47603 36.8115 7.14977 36.8257 7.17814ZM11.8843 8.21367L12.0397 8.49738C12.1245 8.65341 12.2799 9.23501 12.393 9.77405C12.506 10.3415 12.5484 11.0365 12.4919 11.4054C12.4495 11.76 12.3082 12.3983 12.1951 12.8239C12.068 13.2495 11.8701 13.8311 11.7288 14.1006C11.5875 14.3701 11.2766 14.9233 11.0223 15.3063C10.7538 15.7035 9.99069 16.5688 8.05473 18.498L8.4504 18.6824C8.66237 18.7959 9.25588 19.0371 9.77873 19.2215C10.3016 19.4059 10.6972 19.6045 10.6549 19.6754C10.6266 19.7321 10.2592 19.6754 9.86351 19.5477C9.45371 19.4201 8.57758 19.0654 6.71228 18.2143L8.28083 16.6965C9.35479 15.6326 10.019 14.8666 10.4146 14.1715C10.7255 13.6325 11.0223 13.0509 11.0788 12.8948C11.1494 12.7388 11.2484 12.1997 11.3049 11.6891C11.3897 11.1358 11.3755 10.3698 11.2908 9.77405C11.1636 8.89456 11.1777 8.7669 11.4038 8.59667C11.6016 8.45482 11.6723 8.45482 11.7571 8.59667C11.8324 8.71961 11.8701 8.68651 11.8701 8.49738L11.8843 8.21367ZM25.2382 10.0578V11.1217H21.0695L21.0836 10.6677C21.1119 10.4124 21.1401 10.1571 21.1684 10.0861C21.1967 10.0294 22.1293 10.001 25.2382 10.0578ZM37.3203 13.6041C37.3909 13.6466 37.5464 13.8594 37.6735 14.1006C37.7866 14.3417 37.8572 14.5545 37.8431 14.5971C37.829 14.6254 37.6594 14.4127 37.4898 14.1006C37.3203 13.7885 37.2355 13.5615 37.3203 13.6041ZM38.2388 15.1077C38.3094 15.0935 38.5214 15.278 38.691 15.5191C38.8605 15.7461 39.016 16.0156 39.016 16.0865C39.016 16.1574 39.0866 16.2567 39.1856 16.2851C39.3269 16.3419 39.3269 16.356 39.1856 16.356C39.0866 16.3702 38.9595 16.2567 38.9171 16.1291C38.8605 15.9872 38.7051 15.7886 38.5638 15.7035C38.4225 15.6042 38.3377 15.4482 38.3801 15.3773C38.4084 15.3063 38.366 15.207 38.267 15.1787C38.1681 15.1361 38.154 15.1077 38.2388 15.1077V15.1077Z" fill="#EBEBEB"/>
<path d="M10.3154 1.41891C10.5697 1.50402 10.6263 1.48984 10.5415 1.36217C10.4426 1.26287 10.4991 1.22032 10.6969 1.2345C10.8665 1.24869 11.0078 1.30543 11.0078 1.36217C11.0219 1.41891 10.81 1.53239 10.5697 1.61751C10.3154 1.68843 10.0752 1.73099 10.0328 1.68843C9.99037 1.64588 10.061 1.61751 10.1741 1.61751C10.3578 1.61751 10.3578 1.60332 10.1741 1.46147C10.0186 1.34798 10.0469 1.34798 10.3154 1.41891Z" fill="#E7E7E7"/>
<path d="M38.832 2.53955C38.9167 2.49699 38.9733 2.41188 38.9309 2.32677C38.8885 2.24166 39.0015 2.24166 39.2559 2.34096C39.4679 2.42607 39.7505 2.55374 39.8918 2.62466C40.1038 2.73814 40.0472 2.85163 39.3831 3.646C38.9733 4.1283 38.4646 4.75246 38.2526 5.02198C38.0547 5.2915 37.6732 5.92984 37.4047 6.44051C37.1221 6.99374 36.8819 7.29163 36.8253 7.19233C36.7829 7.09303 36.8677 6.75259 37.0232 6.44051C37.1786 6.12843 37.3906 5.8731 37.4754 5.8731C37.5743 5.8731 37.6167 5.83054 37.546 5.7738C37.4895 5.71706 37.546 5.50428 37.6732 5.30569C37.8004 5.10709 38.1395 4.65316 38.4222 4.28434C38.7048 3.91553 38.9874 3.66019 39.0722 3.71693C39.157 3.77367 39.1711 3.7453 39.1146 3.63182C39.0439 3.53252 39.1004 3.39067 39.2135 3.29137C39.3407 3.19207 39.4396 3.02185 39.4255 2.93674C39.4255 2.83744 39.3689 2.75233 39.2842 2.75233C39.1994 2.75233 39.1852 2.6814 39.2559 2.58211C39.3265 2.46862 39.2559 2.44025 39.0015 2.51118C38.8037 2.56792 38.733 2.58211 38.832 2.53955Z" fill="#E7E7E7"/>
<path d="M8.7327 5.1922C8.71857 5.09291 8.85988 4.96524 9.04358 4.89431C9.21316 4.82339 9.49578 4.82339 9.66535 4.88013C9.82079 4.95105 9.94797 5.06454 9.93384 5.14965C9.90558 5.23476 9.93384 5.27732 10.0045 5.23476C10.061 5.20639 10.2589 5.37661 10.4567 5.63195C10.6545 5.88728 10.9654 6.31284 11.1491 6.58236C11.3328 6.85188 11.6013 7.30581 11.7426 7.57534C11.8839 7.85904 11.9546 8.21367 11.9122 8.42645C11.8557 8.69597 11.8133 8.73853 11.7285 8.56831C11.6437 8.3839 11.5872 8.39808 11.347 8.63923C11.0643 8.92294 11.0643 8.92294 10.9089 8.49738C10.8241 8.25623 10.4991 7.68882 10.1882 7.2207C9.87732 6.75259 9.43925 6.14262 9.18489 5.8731C8.94466 5.60358 8.74683 5.2915 8.7327 5.1922Z" fill="#E7E7E7"/>
<path d="M0.791015 7.37674C1.01711 6.90863 1.56823 6.1568 2.00629 5.70287C2.45849 5.24894 2.86829 4.88013 2.91068 4.88013C2.96721 4.88013 2.88242 5.00779 2.74111 5.16383C2.58567 5.33406 2.51501 5.46172 2.5574 5.44754C2.61393 5.44754 2.34544 5.78799 1.9639 6.21355C1.59649 6.6391 1.14429 7.30581 0.960589 7.703C0.776884 8.10019 0.550786 8.42645 0.451869 8.42645C0.367082 8.42645 0.296426 8.3839 0.324689 8.31297C0.352951 8.25623 0.550786 7.83067 0.791015 7.37674Z" fill="#E7E7E7"/>
<path d="M44.23 5.73125C44.3007 5.73125 44.3431 5.63195 44.3007 5.51847C44.2442 5.36243 44.3431 5.37661 44.6681 5.60358C44.9083 5.75962 45.1062 5.95821 45.092 6.02914C45.092 6.10006 45.1344 6.12843 45.2192 6.08588C45.2899 6.04332 45.4453 6.11425 45.5301 6.22773C45.629 6.3554 45.6714 6.4547 45.6008 6.44051C45.5442 6.44051 45.6573 6.61073 45.8551 6.82351C46.053 7.05048 46.2225 7.26326 46.2084 7.32C46.2084 7.39093 46.1236 7.39093 46.0247 7.34837C45.9399 7.30581 45.9682 7.34837 46.0953 7.46185C46.2367 7.56115 46.3356 7.81649 46.3497 8.02926C46.3497 8.25623 46.279 8.42645 46.2084 8.42645C46.1236 8.42645 46.0671 8.29879 46.0671 8.14275C46.0671 7.98671 45.9399 7.61789 45.7986 7.32C45.6432 7.03629 45.3323 6.59655 45.092 6.36958C44.6822 5.97239 44.6116 5.95821 44.23 6.11425C43.8344 6.28447 43.8202 6.28447 43.9474 6.01495C44.0181 5.85891 44.1453 5.73125 44.23 5.73125Z" fill="#E7E7E7"/>
<path d="M36.6699 12.753C36.6275 12.6395 36.6416 12.4267 36.6982 12.299C36.7688 12.0863 36.7971 12.0863 36.8536 12.2565C36.896 12.37 37.009 12.6395 37.108 12.8665C37.2775 13.1927 37.2775 13.2495 37.0938 13.2495C36.9525 13.2495 36.9101 13.1785 36.9808 13.0083C37.0514 12.8239 37.0373 12.7813 36.9101 12.8665C36.8112 12.9232 36.7123 12.8806 36.6699 12.753Z" fill="#E7E7E7"/>
<path d="M37.3199 13.7176C37.3199 13.6466 37.2493 13.5615 37.1362 13.5048C36.9949 13.4197 37.0232 13.3913 37.1927 13.3913C37.3341 13.3913 37.4754 13.4764 37.5036 13.5757C37.5319 13.6608 37.5036 13.8452 37.433 13.9587C37.3482 14.1006 37.3058 14.1148 37.3058 14.0013C37.3058 13.902 37.3058 13.7743 37.3199 13.7176Z" fill="#E7E7E7"/>
<path d="M37.758 14.4268C37.6732 14.4836 37.5602 14.4552 37.5178 14.3843C37.4754 14.3134 37.5319 14.2566 37.6449 14.285C37.6934 14.2911 37.7599 14.3284 37.8336 14.3869C37.8593 14.38 37.8713 14.3901 37.8709 14.4179C37.9593 14.4941 38.0547 14.597 38.1395 14.7105C38.3232 14.9517 38.3656 15.0935 38.2526 15.0935C38.1395 15.0935 38.1537 15.1456 38.295 15.2496C38.4787 15.3773 38.4787 15.3914 38.295 15.3347C38.1819 15.3063 38.0971 15.1645 38.1113 15.0368C38.1395 14.9091 38.0547 14.8098 37.9417 14.8098C37.8004 14.8098 37.758 14.7389 37.8287 14.5687C37.8559 14.4976 37.8705 14.4476 37.8709 14.4179C37.8583 14.407 37.8458 14.3967 37.8336 14.3869C37.8154 14.3918 37.7904 14.4052 37.758 14.4268Z" fill="#E7E7E7"/>
<path d="M39.1711 16.2284C39.0863 16.2284 39.0015 16.1574 39.0015 16.0865C39.0015 16.0156 39.0298 15.9447 39.0722 15.9447C39.1146 15.9447 39.4679 16.3277 39.8494 16.7958C40.457 17.5192 40.5277 17.6753 40.3722 17.8881C40.2309 18.0866 40.2309 18.1008 40.4146 17.9874C40.5701 17.9022 40.5983 17.9022 40.5136 18.0441C40.457 18.1292 40.3157 18.1859 40.2027 18.1434C40.0896 18.1008 39.9907 18.1292 39.9907 18.2143C39.9907 18.2994 39.8635 18.4129 39.7081 18.498C39.5526 18.5831 39.3265 18.5973 39.2135 18.5406C39.0581 18.4555 39.1428 18.3704 39.5668 18.1859C39.9436 18.0157 40.1179 17.8502 40.0896 17.6895C40.0755 17.5618 39.8211 17.2213 39.5244 16.9518C39.1287 16.583 39.0298 16.4128 39.1711 16.3419C39.3124 16.2567 39.3124 16.2284 39.1711 16.2284Z" fill="#E7E7E7"/>
<path d="M42.1812 10.937C41.8703 10.9653 41.4181 10.9653 41.192 10.937C40.9659 10.9088 41.2061 10.8805 41.7572 10.8805C42.3084 10.8805 42.4921 10.9088 42.1812 10.937Z" fill="#1F1F1F" fill-opacity="0.2"/>
<path d="M20.1642 10.9798C20.136 11.3344 20.1077 11.0791 20.1077 10.4124C20.1077 9.74569 20.136 9.46198 20.1642 9.77406C20.1925 10.0861 20.1925 10.6252 20.1642 10.9798Z" fill="#444444" fill-opacity="0.4"/>
<path d="M18.7511 10.9798C18.7229 11.2493 18.6946 10.994 18.6946 10.4124C18.6946 9.8308 18.7229 9.60384 18.7511 9.91591C18.7794 10.228 18.7794 10.7103 18.7511 10.9798Z" fill="#444444" fill-opacity="0.4"/>
<path d="M2.51449 15.6042C2.50036 15.5191 2.66994 15.278 2.89603 15.0652C3.12213 14.8524 3.3341 14.668 3.37649 14.668C3.40475 14.668 3.24931 14.8666 3.02321 15.0936C2.65581 15.4907 2.62754 15.5617 2.81125 15.8454C2.99495 16.1291 2.99495 16.1433 2.76885 15.9447C2.64167 15.8312 2.51449 15.6751 2.51449 15.6042Z" fill="#444444" fill-opacity="0.4"/>
<path d="M3.60259 16.4412L4.30915 15.7035C4.69069 15.2921 5.02983 14.9517 5.04396 14.9517C5.07222 14.9517 5.08636 14.9659 5.08636 14.9943C5.08636 15.0084 4.76134 15.3489 3.60259 16.4412Z" fill="#444444" fill-opacity="0.4"/>
<path d="M26.3821 11.0507C26.3539 11.4479 26.3397 11.15 26.3397 10.4124C26.3397 9.67475 26.3539 9.34848 26.3821 9.70312C26.4104 10.0578 26.4104 10.6535 26.3821 11.0507Z" fill="#151515" fill-opacity="0.1"/>
<path d="M27.9365 10.9798C27.9083 11.3344 27.88 11.0791 27.88 10.4124C27.88 9.74567 27.9083 9.46197 27.9365 9.77404C27.9648 10.0861 27.9648 10.6252 27.9365 10.9798Z" fill="#151515" fill-opacity="0.1"/>
<path d="M2.68425 10.9372C2.33097 10.9656 1.69507 10.9656 1.27114 10.9372C0.847204 10.9089 1.12983 10.8947 1.90704 10.8947C2.68425 10.8947 3.03753 10.9089 2.68425 10.9372Z" fill="#151515" fill-opacity="0.1"/>
<path d="M24.3755 11.3628C23.8385 11.3912 22.8776 11.3912 22.2558 11.3628C21.6341 11.3486 22.0863 11.3202 23.245 11.3202C24.4179 11.3202 24.9266 11.3486 24.3755 11.3628Z" fill="#151515" fill-opacity="0.1"/>
<path d="M31.7518 10.5543C31.7236 10.8238 31.6953 10.5684 31.6953 9.98684C31.6953 9.40524 31.7236 9.17828 31.7518 9.49036C31.7801 9.80243 31.7801 10.2847 31.7518 10.5543Z" fill="#8E8E8E" fill-opacity="0.6"/>
<path d="M26.5233 10.9798C26.4951 11.3344 26.4668 11.0791 26.4668 10.4124C26.4668 9.74569 26.4951 9.46199 26.5233 9.77406C26.5516 10.0861 26.5516 10.6252 26.5233 10.9798Z" fill="#8E8E8E" fill-opacity="0.6"/>
<path d="M18.8925 10.9798C18.8642 11.2493 18.8359 10.994 18.8359 10.4124C18.8359 9.83081 18.8642 9.60385 18.8925 9.91592C18.9207 10.228 18.9207 10.7103 18.8925 10.9798Z" fill="#DADADA" fill-opacity="0.9"/>
<path d="M3.60323 10.3696C3.06625 10.3979 2.10533 10.3979 1.48356 10.3696C0.861794 10.3555 1.29986 10.3272 2.47274 10.3272C3.64562 10.3272 4.14021 10.3555 3.60323 10.3696Z" fill="#848484" fill-opacity="0.7"/>
<path d="M43.3823 10.3696C43.1138 10.3979 42.6051 10.3979 42.2518 10.3696C41.8985 10.3413 42.1246 10.3131 42.7464 10.3131C43.3682 10.3131 43.6508 10.3413 43.3823 10.3696Z" fill="#848484" fill-opacity="0.7"/>
<path d="M3.7447 10.7954C3.03815 10.8238 1.93592 10.8238 1.27176 10.7954C0.607597 10.7812 1.18697 10.7528 2.54356 10.7528C3.90015 10.7528 4.45126 10.7812 3.7447 10.7954Z" fill="#C6C6C6" fill-opacity="0.9"/>
<path d="M42.6759 10.7954C42.4074 10.8238 41.8987 10.8238 41.5454 10.7954C41.1921 10.767 41.4182 10.7386 42.04 10.7386C42.6618 10.7386 42.9444 10.767 42.6759 10.7954Z" fill="#C6C6C6" fill-opacity="0.9"/>
<path d="M23.5283 11.2209C23.0619 11.2493 22.3271 11.2493 21.9032 11.2209C21.4792 11.1926 21.8608 11.1784 22.751 11.1784C23.6413 11.1784 23.9946 11.1926 23.5283 11.2209Z" fill="#C6C6C6" fill-opacity="0.9"/>
<path d="M24.2342 9.94429C23.6972 9.97266 22.7646 9.97266 22.1852 9.94429C21.6058 9.9301 22.0439 9.90173 23.1744 9.90173C24.3049 9.90173 24.7712 9.9301 24.2342 9.94429Z" fill="#6F6F6F" fill-opacity="0.7"/>
<path d="M46.957 10.5826C46.9288 10.4691 46.4624 10.3982 45.4026 10.3698L43.8764 10.3273L45.4309 10.3415C46.7027 10.3415 46.9853 10.384 46.9994 10.5543C46.9994 10.6677 46.9853 10.6819 46.957 10.5826Z" fill="#6F6F6F" fill-opacity="0.7"/>
<path d="M44.3719 8.1002C44.1034 8.12857 43.5947 8.12857 43.2414 8.1002C42.8881 8.07183 43.1142 8.04346 43.736 8.04346C44.3578 8.04346 44.6404 8.07183 44.3719 8.1002Z" fill="#232323" fill-opacity="0.3"/>
<path d="M45.997 8.80946C45.7709 8.83783 45.4176 8.83783 45.2198 8.80946C45.0219 8.78109 45.2198 8.75272 45.6437 8.75272C46.0676 8.75272 46.2231 8.78109 45.997 8.80946Z" fill="#232323" fill-opacity="0.3"/>
<path d="M45.431 8.24205C45.0494 8.27042 44.3429 8.27042 43.8765 8.24205C43.4102 8.21368 43.7211 8.19949 44.5831 8.19949C45.4451 8.19949 45.8266 8.21368 45.431 8.24205Z" fill="#ACACAC" fill-opacity="0.9"/>
<path d="M45.7842 8.66761C45.431 8.69598 44.894 8.69598 44.5831 8.66761C44.2722 8.63924 44.5548 8.61087 45.219 8.61087C45.8832 8.61087 46.1375 8.63924 45.7842 8.66761Z" fill="#ACACAC" fill-opacity="0.9"/>
</svg>
