<svg width="804" height="34" viewBox="0 0 804 34" fill="none" xmlns="http://www.w3.org/2000/svg">
<line y1="3" x2="804" y2="3" stroke="#9F9C9C" stroke-width="6"/>
<path d="M385.661 30.2C383.701 30.2 381.501 30.0667 379.061 29.8V27.4C381.461 27.6 383.261 27.7 384.461 27.7C384.661 27.7 384.828 27.6333 384.961 27.5C385.094 27.3667 385.161 27.2 385.161 27V26H380.661V23.5H385.161V22.7C385.161 22.1667 384.894 21.9 384.361 21.9H379.261V19.4H385.461C386.461 19.4 387.241 19.6867 387.801 20.26C388.374 20.82 388.661 21.6 388.661 22.6V27.2C388.661 28.1067 388.388 28.8333 387.841 29.38C387.294 29.9267 386.568 30.2 385.661 30.2ZM395.457 26H393.957V30H390.457V19.4H393.957V23.3H395.557L396.657 21.1C397.057 20.2467 397.684 19.6667 398.537 19.36C398.844 19.2533 399.137 19.2 399.417 19.2C399.87 19.2 400.284 19.2333 400.657 19.3L401.157 19.4V22.1H400.457C400.004 22.1 399.67 22.3 399.457 22.7L398.457 24.7L401.457 30H397.657L395.457 26ZM408.349 22.1C407.643 22.1 406.843 22.2333 405.949 22.5V27.3H408.949C409.483 27.3 409.749 27.0333 409.749 26.5V22.8C409.749 22.6 409.683 22.4333 409.549 22.3C409.416 22.1667 409.249 22.1 409.049 22.1H408.349ZM405.949 30V33.4H402.449V19.4H405.549L405.749 20.4C406.376 19.9867 407.016 19.6867 407.669 19.5C408.336 19.3 408.896 19.2 409.349 19.2H410.249C411.156 19.2 411.883 19.4733 412.429 20.02C412.976 20.5667 413.249 21.2933 413.249 22.2V26.8C413.249 27.8 412.963 28.5867 412.389 29.16C411.829 29.72 411.049 30 410.049 30H405.949ZM419.247 27.4C419.954 27.4 420.754 27.2667 421.647 27V25.8H418.747C418.547 25.8 418.38 25.8667 418.247 26C418.114 26.1333 418.047 26.3 418.047 26.5V26.7C418.047 26.9 418.114 27.0667 418.247 27.2C418.38 27.3333 418.547 27.4 418.747 27.4H419.247ZM415.547 19.6C417.987 19.3333 420.187 19.2 422.147 19.2C423.054 19.2 423.78 19.4733 424.327 20.02C424.874 20.5667 425.147 21.2933 425.147 22.2V30H422.047L421.847 29C421.22 29.4133 420.574 29.72 419.907 29.92C419.254 30.1067 418.7 30.2 418.247 30.2H417.547C416.64 30.2 415.914 29.9267 415.367 29.38C414.82 28.8333 414.547 28.1067 414.547 27.2V26.3C414.547 25.3933 414.82 24.6667 415.367 24.12C415.914 23.5733 416.64 23.3 417.547 23.3H421.647V22.5C421.647 22.3 421.58 22.1333 421.447 22C421.314 21.8667 421.147 21.8 420.947 21.8C420.08 21.8 419.12 21.84 418.067 21.92C417.027 22 416.187 22.06 415.547 22.1V19.6ZM434.041 23.3V19.4H437.541V30H434.041V26H430.441V30H426.941V19.4H430.441V23.3H434.041Z" fill="white" fill-opacity="0.5"/>
</svg>
