<svg width="44" height="46" viewBox="0 0 44 46" fill="none" xmlns="http://www.w3.org/2000/svg">
<rect width="44" height="46" rx="15" fill="#9F9C9C"/>
<path d="M20.3012 16.8C22.1278 16.8 24.3278 16.9333 26.9012 17.2V19.9C26.1678 19.86 25.5412 19.8267 25.0212 19.8C24.5145 19.76 24.0945 19.7333 23.7612 19.72C23.4412 19.6933 23.1212 19.6667 22.8012 19.64C22.2678 19.6133 21.7745 19.6 21.3212 19.6C20.5078 19.6 20.1012 19.9333 20.1012 20.6V22.4C21.3945 22.1333 22.5278 22 23.5012 22H24.9012C25.8078 22 26.5345 22.2733 27.0812 22.82C27.6278 23.3667 27.9012 24.0933 27.9012 25V27.6C27.9012 28.8133 27.5945 29.72 26.9812 30.32C26.3678 30.9067 25.4078 31.2 24.1012 31.2H20.3012C18.9945 31.2 18.0345 30.9067 17.4212 30.32C16.8078 29.72 16.5012 28.8133 16.5012 27.6V20.6C16.5012 19.2933 16.8078 18.3333 17.4212 17.72C18.0345 17.1067 18.9945 16.8 20.3012 16.8ZM22.5012 24.8C21.9945 24.8 21.5278 24.8267 21.1012 24.88C20.6878 24.9333 20.3545 24.9733 20.1012 25V27.2C20.1012 28 20.5012 28.4 21.3012 28.4H23.1012C23.9012 28.4 24.3012 28 24.3012 27.2V25.5C24.3012 25.3 24.2345 25.1333 24.1012 25C23.9678 24.8667 23.8012 24.8 23.6012 24.8H22.5012Z" fill="black"/>
</svg>
