<svg width="44" height="46" viewBox="0 0 44 46" fill="none" xmlns="http://www.w3.org/2000/svg">
<rect width="44" height="46" rx="15" fill="#9F9C9C"/>
<path d="M23.8039 31.2C21.5772 31.2 19.1106 31.0667 16.4039 30.8V28.1C19.3506 28.3 21.5506 28.4 23.0039 28.4C23.3106 28.4 23.5506 28.3133 23.7239 28.14C23.9106 27.9533 24.0039 27.7067 24.0039 27.4V26.4C24.0039 25.6 23.6039 25.2 22.8039 25.2H17.0039V17H26.6039V19.8H20.6039V22.4H23.8039C25.1106 22.4 26.0706 22.7 26.6839 23.3C27.2972 23.8867 27.6039 24.7867 27.6039 26V27.4C27.6039 28.7067 27.2972 29.6667 26.6839 30.28C26.0706 30.8933 25.1106 31.2 23.8039 31.2Z" fill="black"/>
</svg>
