<svg width="44" height="46" viewBox="0 0 44 46" fill="none" xmlns="http://www.w3.org/2000/svg">
<rect width="44" height="46" rx="15" fill="#9F9C9C"/>
<path d="M25.1965 29.2C22.9698 29.2 20.5032 29.0667 17.7965 28.8V26.1C20.7432 26.3 22.9432 26.4 24.3965 26.4C24.7032 26.4 24.9432 26.3133 25.1165 26.14C25.3032 25.9533 25.3965 25.7067 25.3965 25.4V24.6C25.3965 23.8 24.9965 23.4 24.1965 23.4H19.9965V20.6H23.7965C24.5965 20.6 24.9965 20.2 24.9965 19.4V19C24.9965 18.2 24.5965 17.8 23.7965 17.8H17.9965V15H24.7965C26.1032 15 27.0632 15.3 27.6765 15.9C28.2898 16.4867 28.5965 17.3867 28.5965 18.6C28.5965 19.4 28.4098 20.0533 28.0365 20.56C27.6765 21.0533 27.1965 21.4 26.5965 21.6C27.6765 21.8933 28.4098 22.6133 28.7965 23.76C28.9298 24.1733 28.9965 24.6533 28.9965 25.2V25.4C28.9965 26.7067 28.6898 27.6667 28.0765 28.28C27.4632 28.8933 26.5032 29.2 25.1965 29.2Z" fill="black"/>
</svg>
