<svg width="111" height="64" viewBox="0 0 111 64" fill="none" xmlns="http://www.w3.org/2000/svg">
<rect width="111" height="64" rx="15" fill="#9F9C9C"/>
<path d="M62.7144 43.32C59.1517 43.32 55.205 43.1067 50.8744 42.68V38.36C55.589 38.68 59.109 38.84 61.4344 38.84C61.925 38.84 62.309 38.7013 62.5864 38.424C62.885 38.1253 63.0344 37.7307 63.0344 37.24V35.96C63.0344 34.68 62.3944 34.04 61.1144 34.04H54.3944V29.56H60.4744C61.7544 29.56 62.3944 28.92 62.3944 27.64V27C62.3944 25.72 61.7544 25.08 60.4744 25.08H51.1944V20.6H62.0744C64.165 20.6 65.701 21.08 66.6824 22.04C67.6637 22.9787 68.1544 24.4187 68.1544 26.36C68.1544 27.64 67.8557 28.6853 67.2584 29.496C66.6824 30.2853 65.9144 30.84 64.9544 31.16C66.6824 31.6293 67.8557 32.7813 68.4744 34.616C68.6877 35.2773 68.7944 36.0453 68.7944 36.92V37.24C68.7944 39.3307 68.3037 40.8667 67.3224 41.848C66.341 42.8293 64.805 43.32 62.7144 43.32Z" fill="black"/>
</svg>
