<svg width="59" height="15" viewBox="0 0 59 15" fill="none" xmlns="http://www.w3.org/2000/svg">
<path d="M6.66094 11.2C4.70094 11.2 2.50094 11.0667 0.0609375 10.8V8.4C2.46094 8.6 4.26094 8.7 5.46094 8.7C5.66094 8.7 5.8276 8.63333 5.96094 8.5C6.09427 8.36667 6.16094 8.2 6.16094 8V7H1.66094V4.5H6.16094V3.7C6.16094 3.16667 5.89427 2.9 5.36094 2.9H0.260938V0.399999H6.46094C7.46094 0.399999 8.24094 0.686666 8.80094 1.26C9.37427 1.82 9.66094 2.6 9.66094 3.6V8.2C9.66094 9.10667 9.3876 9.83333 8.84094 10.38C8.29427 10.9267 7.5676 11.2 6.66094 11.2ZM16.457 7H14.957V11H11.457V0.399999H14.957V4.3H16.557L17.657 2.1C18.057 1.24667 18.6837 0.666667 19.537 0.36C19.8437 0.253333 20.137 0.2 20.417 0.2C20.8704 0.2 21.2837 0.233333 21.657 0.299999L22.157 0.399999V3.1H21.457C21.0037 3.1 20.6704 3.3 20.457 3.7L19.457 5.7L22.457 11H18.657L16.457 7ZM29.3492 3.1C28.6426 3.1 27.8426 3.23333 26.9492 3.5V8.3H29.9492C30.4826 8.3 30.7492 8.03333 30.7492 7.5V3.8C30.7492 3.6 30.6826 3.43333 30.5492 3.3C30.4159 3.16667 30.2492 3.1 30.0492 3.1H29.3492ZM26.9492 11V14.4H23.4492V0.399999H26.5492L26.7492 1.4C27.3759 0.986666 28.0159 0.686666 28.6692 0.499999C29.3359 0.299999 29.8959 0.2 30.3492 0.2H31.2492C32.1559 0.2 32.8826 0.473333 33.4292 1.02C33.9759 1.56667 34.2492 2.29333 34.2492 3.2V7.8C34.2492 8.8 33.9626 9.58667 33.3892 10.16C32.8292 10.72 32.0492 11 31.0492 11H26.9492ZM40.2469 8.4C40.9535 8.4 41.7535 8.26667 42.6469 8V6.8H39.7469C39.5469 6.8 39.3802 6.86667 39.2469 7C39.1135 7.13333 39.0469 7.3 39.0469 7.5V7.7C39.0469 7.9 39.1135 8.06667 39.2469 8.2C39.3802 8.33333 39.5469 8.4 39.7469 8.4H40.2469ZM36.5469 0.599999C38.9869 0.333333 41.1869 0.2 43.1469 0.2C44.0535 0.2 44.7802 0.473333 45.3269 1.02C45.8735 1.56667 46.1469 2.29333 46.1469 3.2V11H43.0469L42.8469 10C42.2202 10.4133 41.5735 10.72 40.9069 10.92C40.2535 11.1067 39.7002 11.2 39.2469 11.2H38.5469C37.6402 11.2 36.9135 10.9267 36.3669 10.38C35.8202 9.83333 35.5469 9.10667 35.5469 8.2V7.3C35.5469 6.39333 35.8202 5.66667 36.3669 5.12C36.9135 4.57333 37.6402 4.3 38.5469 4.3H42.6469V3.5C42.6469 3.3 42.5802 3.13333 42.4469 3C42.3135 2.86667 42.1469 2.8 41.9469 2.8C41.0802 2.8 40.1202 2.84 39.0669 2.92C38.0269 3 37.1869 3.06 36.5469 3.1V0.599999ZM55.0414 4.3V0.399999H58.5414V11H55.0414V7H51.4414V11H47.9414V0.399999H51.4414V4.3H55.0414Z" fill="white" fill-opacity="0.5"/>
</svg>
